<?xml version="1.0" standalone="no"?>
<svg version="1.0" xmlns="http://www.w3.org/2000/svg"
 width="96.000000pt" height="96.000000pt" viewBox="0 0 96.000000 96.000000"
 preserveAspectRatio="xMidYMid meet">

<g transform="translate(0.000000,96.000000) scale(0.100000,-0.100000)"
fill="#543ae8" stroke="none">
<path d="M129 831 l-29 -29 0 -322 0 -322 29 -29 29 -29 322 0 322 0 29 29 29
29 0 322 0 322 -29 29 -29 29 -322 0 -322 0 -29 -29z m421 -130 c0 -33 4 -40
29 -51 24 -9 34 -9 60 4 l31 17 30 -48 c37 -58 37 -74 2 -95 -37 -22 -36 -67
4 -102 l29 -25 -30 -55 c-16 -31 -33 -56 -38 -56 -4 0 -21 7 -37 15 -27 14
-32 14 -54 -1 -18 -11 -26 -26 -28 -52 l-3 -37 -65 0 -65 0 -3 38 c-3 29 -9
40 -30 51 -23 12 -31 12 -52 0 -37 -20 -43 -18 -73 31 -34 57 -34 69 1 94 37
26 33 72 -9 102 l-29 20 27 47 c37 66 37 66 78 52 52 -17 85 1 85 45 0 17 3
35 7 38 3 4 35 7 70 7 l63 0 0 -39z"/>
<path d="M445 571 c-64 -27 -81 -110 -32 -158 60 -61 162 -19 162 67 0 66 -72
116 -130 91z"/>
</g>
</svg>
